<?xml version="1.0" encoding="UTF-8"?>
<svg width="1200pt" height="1200pt" version="1.1" viewBox="0 0 1200 1200" xmlns="http://www.w3.org/2000/svg">
 <g fill="#fff">
  <path d="m1008 436.8c11.039 6.4805 23.879 7.8008 36.359 4.6797 12.48-3.2383 22.801-11.039 29.281-22.078 13.199-23.16 5.3984-52.441-17.879-65.641-7.4414-4.3203-15.719-6.4805-23.879-6.4805-16.441 0-32.879 8.5195-41.398 23.879-6.4805 11.039-8.1602 23.879-5.0391 36.359 3.2344 12.602 11.395 22.922 22.555 29.281z"/>
  <path d="m648 291.6c0-26.398-21.359-48.121-48.121-48.121-26.398 0-47.762 21.719-47.762 48.121 0 26.398 21.359 47.762 47.762 47.762 26.762 0.11719 48.121-21.363 48.121-47.762z"/>
  <path d="m180.24 348.72c-3.9609-1.0781-8.1602-1.4414-12.121-1.4414-8.5195 0-16.801 2.1602-24.238 6.4805-22.801 13.199-30.719 42.48-17.52 65.641 12.84 21.723 42.84 30.602 65.641 17.402 7.0781-4.6797 13.199-10.32 17.52-17.52 8.5195-15 8.5195-33.48 0-48.121-6.3594-11.039-16.801-19.199-29.281-22.441z"/>
  <path d="m468.84 604.56c-0.35938 0.71875-0.35938 1.4414-0.71875 1.8008-0.71875 1.0781-1.8008 1.4414-2.8789 2.1602-0.35938 0.35938-0.71875 1.0781-1.4414 1.4414-2.1602 1.0781-4.3203 1.8008-6.7188 1.8008-1.8008 0-3.6016-0.35938-5.3984-1.0781-0.71875-0.35938-1.0781-0.71875-1.4414-1.0781-0.35938 0-0.71875 0-1.0781-0.35938l-225.36-164.89c-5.3984 6.1211-11.398 11.398-18.602 15.359-6.7188 4.3203-13.922 6.4805-21.359 8.1602l76.68 365.64c224.76 48.48 453.12 48.48 678.6 0l76.68-365.64c-7.4414-1.8008-14.641-3.9609-21.359-7.8008-7.0781-4.3203-12.84-9.6016-18.238-15.719l-225.84 164.76c0 0.35938-0.35938 0.35938-0.71875 0.35938-0.71875 0.35938-1.0781 0.71875-1.8008 1.0781-1.4414 0.71875-3.2383 1.0781-5.3984 1.0781s-4.3203-0.71875-6.4805-1.8008c-0.71875-0.35938-1.0781-1.0781-1.8008-1.4414-0.71875-0.71875-1.8008-1.0781-2.5195-2.1602-0.35938-0.35938-0.35938-1.0781-0.71875-1.8008-0.35938-0.35938-0.71875-0.35938-0.71875-0.71875l-106.68-241.56c-7.4414 2.5195-15.359 3.9609-23.879 3.9609-8.1602 0-16.078-1.4414-23.52-3.9609l-106.68 241.56c-0.24609 0.48438-0.60547 0.48438-0.60547 0.84375z"/>
  <path d="m933 861.72c-110.64 23.16-222.24 35.281-333.6 35.281-111.36 0-222.6-12.121-332.88-35.281l12.84 61.32c212.28 44.641 427.8 44.641 640.68 0z"/>
 </g>
</svg>
